<svg xmlns="http://www.w3.org/2000/svg" version="1.1" xmlns:xlink="http://www.w3.org/1999/xlink" xmlns:svgjs="http://svgjs.com/svgjs" width="1440" height="700" preserveAspectRatio="none" viewBox="0 0 1440 700"><g mask="url(&quot;#SvgjsMask1164&quot;)" fill="none"><rect width="1440" height="700" x="0" y="0" fill="#0e2a47"></rect><path d="M 0,122 C 57.6,141.6 172.8,222.6 288,220 C 403.2,217.4 460.8,102.6 576,109 C 691.2,115.4 748.8,265.6 864,252 C 979.2,238.4 1036.8,52.6 1152,41 C 1267.2,29.4 1382.4,163.4 1440,194L1440 700L0 700z" fill="rgba(51, 113, 204, 1)"></path><path d="M 0,532 C 36,516.6 108,448.2 180,455 C 252,461.8 288,579.8 360,566 C 432,552.2 468,387.4 540,386 C 612,384.6 648,546.8 720,559 C 792,571.2 828,439.2 900,447 C 972,454.8 1008,596.6 1080,598 C 1152,599.4 1188,466.6 1260,454 C 1332,441.4 1404,518.8 1440,535L1440 700L0 700z" fill="#2264ab"></path></g><defs><mask id="SvgjsMask1164"><rect width="1440" height="700" fill="#ffffff"></rect></mask></defs></svg>